<?xml version="1.0" encoding="UTF-8"?>
<svg id="Layer_2" data-name="Layer 2" xmlns="http://www.w3.org/2000/svg" xmlns:xlink="http://www.w3.org/1999/xlink" viewBox="0 0 349.23 175.4">
  <defs>
    <style>
      .cls-1 {
        fill: url(#linear-gradient-2);
      }

      .cls-2 {
        fill: #6f9e40;
      }

      .cls-3 {
        fill: url(#linear-gradient);
      }

      .cls-4 {
        fill: #0d3d61;
      }
    </style>
    <linearGradient id="linear-gradient" x1="81.82" y1="17.03" x2="110.87" y2="70.16" gradientTransform="translate(79.92 -57.61) rotate(45)" gradientUnits="userSpaceOnUse">
      <stop offset="0" stop-color="#000"/>
      <stop offset="1" stop-color="#0d3d61"/>
    </linearGradient>
    <linearGradient id="linear-gradient-2" x1="196.46" y1="18.73" x2="225.5" y2="71.86" gradientTransform="translate(121.43 -177.57) rotate(45)" xlink:href="#linear-gradient"/>
  </defs>
  <g id="Layer_1-2" data-name="Layer 1">
    <g>
      <rect class="cls-4" x="148.45" y="27.08" width="43.49" height="43.49" rx="6" ry="6" transform="translate(15.32 134.64) rotate(-45)"/>
      <g>
        <rect class="cls-3" x="98.97" y="30.43" width="21.07" height="74.48" rx="9.19" ry="9.19" transform="translate(-15.78 97.25) rotate(-45)"/>
        <rect class="cls-4" x="98.97" y="-7.26" width="21.07" height="74.48" rx="9.19" ry="9.19" transform="translate(53.27 -68.65) rotate(45)"/>
      </g>
      <g>
        <rect class="cls-1" x="220.34" y="-7.26" width="21.07" height="74.48" rx="9.19" ry="9.19" transform="translate(415.32 -112.08) rotate(135)"/>
        <rect class="cls-4" x="220.34" y="30.43" width="21.07" height="74.48" rx="9.19" ry="9.19" transform="translate(346.28 278.77) rotate(-135)"/>
      </g>
    </g>
    <g>
      <rect class="cls-2" x="50.77" y="134.13" width="35.71" height="35.71" rx="6" ry="6" transform="translate(-87.37 93.04) rotate(-45)"/>
      <g>
        <path class="cls-4" d="m34.81,144.04c-1.88-1.94-3.78-3.38-5.71-4.32-1.93-.94-3.95-1.41-6.07-1.41-3.68,0-6.69,1.27-9.02,3.81s-3.51,5.8-3.51,9.77,1.16,7.2,3.48,9.67c2.32,2.47,5.34,3.7,9.05,3.7,2.2,0,4.39-.46,6.58-1.38,2.19-.92,4.37-2.3,6.55-4.14l-.66,11.54c-1.86,1.26-3.89,2.22-6.1,2.88-2.21.66-4.5.99-6.88.99-2.56,0-5.01-.4-7.36-1.2-2.35-.8-4.51-1.98-6.49-3.54-2.8-2.2-4.94-4.88-6.43-8.05-1.49-3.17-2.23-6.62-2.23-10.36,0-3.22.55-6.24,1.65-9.05,1.1-2.82,2.7-5.31,4.8-7.46,2.12-2.16,4.57-3.81,7.35-4.96,2.78-1.15,5.71-1.72,8.78-1.72,2.44,0,4.77.34,6.99,1.02,2.22.68,4.34,1.71,6.36,3.09l-1.11,11.12Z"/>
        <path class="cls-4" d="m97.43,173.75l9.02-44.88h.75l16.4,28.3,15.47-28.3h.78l9.08,44.88h-9.86l-3.69-19.85-11.66,21.44h-.69l-12.53-21.74-3.81,20.15h-9.26Z"/>
        <path class="cls-4" d="m165.09,130.28v23.89c0,3.84.7,6.71,2.11,8.62,1.41,1.91,3.54,2.86,6.4,2.86s4.86-.89,6.31-2.67c1.45-1.78,2.17-4.37,2.17-7.76v-24.94h9.26v24.94c0,6.28-1.61,11.17-4.83,14.67-3.22,3.51-7.69,5.26-13.4,5.26s-10.27-1.74-13.48-5.22c-3.21-3.48-4.81-8.36-4.81-14.66v-25h10.25Z"/>
        <path class="cls-4" d="m200.89,173.75v-44.88h.99l27.07,25.36v-23.95h9.56v45.12h-.9l-27.16-25.36v23.71h-9.56Z"/>
        <path class="cls-4" d="m248.58,173.75v-43.47h10.37v43.47h-10.37Z"/>
        <path class="cls-4" d="m301.2,144.04c-1.88-1.94-3.78-3.38-5.71-4.32-1.93-.94-3.95-1.41-6.07-1.41-3.68,0-6.69,1.27-9.02,3.81-2.34,2.54-3.51,5.8-3.51,9.77s1.16,7.2,3.48,9.67,5.34,3.7,9.05,3.7c2.2,0,4.39-.46,6.58-1.38,2.19-.92,4.37-2.3,6.55-4.14l-.66,11.54c-1.86,1.26-3.89,2.22-6.1,2.88-2.21.66-4.5.99-6.88.99-2.56,0-5.01-.4-7.36-1.2-2.35-.8-4.51-1.98-6.49-3.54-2.8-2.2-4.94-4.88-6.43-8.05-1.49-3.17-2.23-6.62-2.23-10.36,0-3.22.55-6.24,1.65-9.05,1.1-2.82,2.7-5.31,4.8-7.46,2.12-2.16,4.57-3.81,7.35-4.96,2.78-1.15,5.71-1.72,8.78-1.72,2.44,0,4.77.34,6.99,1.02,2.22.68,4.34,1.71,6.36,3.09l-1.11,11.12Z"/>
        <path class="cls-4" d="m304.74,173.75l22.16-44.82h.66l21.68,44.82h-10.85l-2.76-6.33h-17.63l-2.82,6.33h-10.43Zm16.25-13.82h11.42l-5.64-13.61-5.79,13.61Z"/>
      </g>
      <path class="cls-2" d="m325.8,145.86l-6.87,13.64c-.33.67.15,1.45.89,1.45h13.73c.74,0,1.23-.78.89-1.45l-6.87-13.64c-.37-.73-1.42-.73-1.79,0Z"/>
    </g>
  </g>
</svg>