<?xml version="1.0" encoding="UTF-8"?>
<svg id="Layer_2" data-name="Layer 2" xmlns="http://www.w3.org/2000/svg" viewBox="0 0 349.23 46.59">
  <defs>
    <style>
      .cls-1 {
        fill: #6f9e40;
      }

      .cls-2 {
        fill: #0d3d61;
      }
    </style>
  </defs>
  <g id="Layer_1-2" data-name="Layer 1">
    <g>
      <rect class="cls-1" x="50.77" y="5.32" width="35.71" height="35.71" rx="6" ry="6" transform="translate(3.71 55.31) rotate(-45)"/>
      <g>
        <path class="cls-2" d="m34.81,15.23c-1.88-1.94-3.78-3.38-5.71-4.32-1.93-.94-3.95-1.41-6.07-1.41-3.68,0-6.69,1.27-9.02,3.81s-3.51,5.8-3.51,9.77,1.16,7.2,3.48,9.67c2.32,2.47,5.34,3.7,9.05,3.7,2.2,0,4.39-.46,6.58-1.38,2.19-.92,4.37-2.3,6.55-4.14l-.66,11.54c-1.86,1.26-3.89,2.22-6.1,2.88-2.21.66-4.5.99-6.88.99-2.56,0-5.01-.4-7.36-1.2-2.35-.8-4.51-1.98-6.49-3.54-2.8-2.2-4.94-4.88-6.43-8.05-1.49-3.17-2.23-6.62-2.23-10.36,0-3.22.55-6.24,1.65-9.05,1.1-2.82,2.7-5.31,4.8-7.46,2.12-2.16,4.57-3.81,7.35-4.96,2.78-1.15,5.71-1.72,8.78-1.72,2.44,0,4.77.34,6.99,1.02,2.22.68,4.34,1.71,6.36,3.09l-1.11,11.12Z"/>
        <path class="cls-2" d="m97.43,44.94L106.45.06h.75l16.4,28.3L139.07.06h.78l9.08,44.88h-9.86l-3.69-19.85-11.66,21.44h-.69l-12.53-21.74-3.81,20.15h-9.26Z"/>
        <path class="cls-2" d="m165.09,1.47v23.89c0,3.84.7,6.71,2.11,8.62,1.41,1.91,3.54,2.86,6.4,2.86s4.86-.89,6.31-2.67c1.45-1.78,2.17-4.37,2.17-7.76V1.47h9.26v24.94c0,6.28-1.61,11.17-4.83,14.67-3.22,3.51-7.69,5.26-13.4,5.26s-10.27-1.74-13.48-5.22c-3.21-3.48-4.81-8.36-4.81-14.66V1.47h10.25Z"/>
        <path class="cls-2" d="m200.89,44.94V.06h.99l27.07,25.36V1.47h9.56v45.12h-.9l-27.16-25.36v23.71h-9.56Z"/>
        <path class="cls-2" d="m248.58,44.94V1.47h10.37v43.47h-10.37Z"/>
        <path class="cls-2" d="m301.2,15.23c-1.88-1.94-3.78-3.38-5.71-4.32-1.93-.94-3.95-1.41-6.07-1.41-3.68,0-6.69,1.27-9.02,3.81-2.34,2.54-3.51,5.8-3.51,9.77s1.16,7.2,3.48,9.67,5.34,3.7,9.05,3.7c2.2,0,4.39-.46,6.58-1.38,2.19-.92,4.37-2.3,6.55-4.14l-.66,11.54c-1.86,1.26-3.89,2.22-6.1,2.88-2.21.66-4.5.99-6.88.99-2.56,0-5.01-.4-7.36-1.2-2.35-.8-4.51-1.98-6.49-3.54-2.8-2.2-4.94-4.88-6.43-8.05-1.49-3.17-2.23-6.62-2.23-10.36,0-3.22.55-6.24,1.65-9.05,1.1-2.82,2.7-5.31,4.8-7.46,2.12-2.16,4.57-3.81,7.35-4.96,2.78-1.15,5.71-1.72,8.78-1.72,2.44,0,4.77.34,6.99,1.02,2.22.68,4.34,1.71,6.36,3.09l-1.11,11.12Z"/>
        <path class="cls-2" d="m304.74,44.94L326.89.12h.66l21.68,44.82h-10.85l-2.76-6.33h-17.63l-2.82,6.33h-10.43Zm16.25-13.82h11.42l-5.64-13.61-5.79,13.61Z"/>
      </g>
      <path class="cls-1" d="m325.8,17.04l-6.87,13.64c-.33.67.15,1.45.89,1.45h13.73c.74,0,1.23-.78.89-1.45l-6.87-13.64c-.37-.73-1.42-.73-1.79,0Z"/>
    </g>
  </g>
</svg>